<svg width="512" height="512" viewBox="0 0 512 512" fill="none" xmlns="http://www.w3.org/2000/svg">
<path d="M512 256C512 397.385 397.385 512 256 512C114.615 512 0 397.385 0 256C0 114.615 114.615 0 256 0C397.385 0 512 114.615 512 256Z" fill="#B825A3"/>
<path d="M512 256C512 397.385 397.385 512 256 512C114.615 512 0 397.385 0 256C0 114.615 114.615 0 256 0C397.385 0 512 114.615 512 256Z" fill="#121211"/>
<path d="M142.754 104.647C142.754 82.5561 160.663 64.6475 182.754 64.6475H329.244C351.336 64.6475 369.244 82.5561 369.244 104.647V407.353C369.244 429.444 351.336 447.353 329.244 447.353H182.754C160.663 447.353 142.754 429.444 142.754 407.353V104.647Z" fill="#E8E0D1"/>
<path d="M276 396.62C276 407.666 267.046 416.62 256 416.62C244.954 416.62 236 407.666 236 396.62C236 385.574 244.954 376.62 256 376.62C267.046 376.62 276 385.574 276 396.62Z" fill="#121211"/>
</svg>
