<svg width="701" height="698" viewBox="0 0 701 698" fill="none" xmlns="http://www.w3.org/2000/svg">
  <path d="M337.99 0.492188C610.09 -13.7074 787.189 282.092 656.189 518.992C586.489 645.092 429.69 723.592 286.59 689.292C254.09 681.492 228.19 663.993 200.89 645.893C194.29 654.692 185.689 661.793 176.689 667.893C150.289 686.192 101.99 706.192 70.4902 694.292C44.8902 684.592 51.2898 657.192 49.0898 634.992C40.4898 549.292 4.18965 471.592 0.389648 381.292C-8.31017 174.992 129.39 11.3922 337.99 0.492188ZM585.438 243.75C538.002 140.03 432.976 82.5855 319.827 92.5947C207.983 102.459 126.602 195.009 102.231 300.18C84.0986 377.498 87.8706 503.268 118.914 577.105C128.778 600.315 136.902 614.967 163.158 600.896C181.291 590.887 197.103 573.479 213.495 560.714V560.858C421.661 702.44 690.463 474.546 585.438 243.75Z" fill="#0A0B0B"/>
</svg>
