<svg width="117" height="117" viewBox="0 0 117 117" fill="none" xmlns="http://www.w3.org/2000/svg">
<path d="M55.8632 41.467C55.3411 40.2176 54.6606 38.9857 53.816 37.7715C53.247 39.8304 52.895 41.8776 52.7542 43.919C52.5313 47.0045 52.7835 49.6442 53.5109 51.8322C53.6693 52.3073 53.8453 52.7649 54.0447 53.2048C54.3028 52.8822 54.5375 52.5478 54.7662 52.2017C55.8632 50.5182 56.4908 48.471 56.6609 46.0542C56.7724 44.5408 56.5084 43.0098 55.8632 41.467Z" fill="#019900"/>
<path d="M109.942 30.8613C109.713 29.5179 109.155 28.3506 108.258 27.371C107.355 26.3855 105.982 25.7579 104.128 25.4763C103.401 25.3648 102.668 25.2769 101.94 25.2241C101.207 25.1654 100.48 25.1361 99.7465 25.1361C95.259 25.1361 91.0062 26.0336 86.988 27.8344C82.9757 29.6294 79.198 31.9875 75.6608 34.9088C75.4379 35.073 75.1563 35.2431 74.822 35.4132C74.4817 35.5775 74.1767 35.5247 73.8951 35.2431C73.7837 35.1317 73.7133 34.9909 73.684 34.8208C73.6546 34.6565 73.813 34.375 74.1474 33.9819C74.4817 33.5889 75.0742 33.0551 75.913 32.3805C76.7577 31.706 77.9896 30.8085 79.6203 29.6822C82.4829 27.723 85.3045 25.9397 88.0849 24.3383C90.8654 22.7369 93.7397 21.0416 96.7196 19.2408C97.6699 18.6835 98.6261 17.9503 99.5822 17.0528C100.532 16.1553 101.389 15.1991 102.152 14.1902C102.908 13.1754 103.495 12.1547 103.917 11.1164C104.34 10.0781 104.469 9.13372 104.298 8.29488C104.128 7.22728 103.765 6.32979 103.202 5.59654C102.638 4.86916 101.952 4.29429 101.137 3.87195C100.327 3.4496 99.4121 3.1563 98.4032 2.98618C97.3883 2.82194 96.3501 2.73395 95.2883 2.73395C91.9741 2.73395 88.6598 3.30881 85.3455 4.45854C82.0371 5.61414 78.8343 7.18622 75.7488 9.17478C72.6574 11.1692 69.7655 13.5039 67.073 16.167C66.1697 17.0586 65.3074 17.9737 64.4803 18.9123C64.8792 20.2321 64.9378 21.5344 64.6621 22.8132C64.2104 25.1126 63.09 26.9956 61.2951 28.4562C59.94 29.5531 58.3855 30.2395 56.6257 30.5093C56.0216 31.7353 55.476 32.9789 54.9891 34.2342C54.5257 35.4132 54.1386 36.5982 53.816 37.7714C53.247 39.8303 52.895 41.8775 52.7542 43.9189C52.5313 47.0044 52.7835 49.6441 53.5109 51.8321C53.6693 52.3072 53.8453 52.7648 54.0447 53.2047C54.731 54.7827 55.6344 56.1084 56.7548 57.1818C58.1861 58.5603 59.899 59.5576 61.8934 60.1735C63.8878 60.7894 66.0641 61.1003 68.4222 61.1003C71.9007 61.1003 75.608 60.4961 79.5382 59.2877C83.4684 58.0793 87.2696 56.4662 90.9475 54.4424C94.6255 52.4245 97.9691 50.0958 100.972 47.4561C103.976 44.8164 106.316 42.0653 108.006 39.2027C108.733 37.9121 109.296 36.5336 109.689 35.073C110.082 33.6183 110.164 32.2104 109.942 30.8613Z" fill="#EA0900"/>
<path d="M64.6634 22.8134C64.2117 25.1129 63.0913 26.9958 61.2963 28.4565C59.9413 29.5534 58.3868 30.2397 56.627 30.5096C56.0404 30.5976 55.4362 30.6445 54.8086 30.6445C53.5767 30.6445 52.3683 30.445 51.1892 30.052C50.0102 29.7177 48.8018 29.1839 47.5699 28.4565C46.3322 27.7232 45.1121 26.9372 43.9037 26.0984C42.6953 25.2537 41.5339 24.3972 40.4076 23.5291C39.2872 22.655 38.2724 21.8573 37.3749 21.1299C36.9819 20.8483 36.6475 20.8483 36.366 21.1299C36.143 21.3528 36.102 21.564 36.2428 21.7575C36.3777 21.957 36.5361 22.1095 36.7003 22.221C37.7679 23.0657 39.0174 24.0218 40.4487 25.0835C41.88 26.1511 43.3582 27.3185 44.8716 28.5797C46.3909 29.8467 47.875 31.1783 49.3356 32.5802C50.7962 33.9822 52.0867 35.4311 53.2071 36.9211C53.4242 37.2026 53.6295 37.4842 53.8172 37.7716C53.2482 39.8306 52.8962 41.8778 52.7555 43.9192C52.5326 47.0047 52.7848 49.6443 53.5122 51.8324C53.6705 52.3075 53.8465 52.765 54.046 53.205C53.084 54.4427 51.9401 55.4868 50.5968 56.3315C48.9133 57.3992 47.0068 58.1676 44.8716 58.6486C42.7364 59.1237 40.5191 59.3642 38.2196 59.3642C35.6914 59.3642 33.2101 59.112 30.764 58.6017C28.3237 58.0972 26.0653 57.3992 23.9888 56.5017C21.8536 55.5455 19.6362 54.3078 17.3309 52.7944C15.0314 51.2751 12.9666 49.5798 11.1423 47.6968C9.31798 45.8197 7.89842 43.8253 6.88947 41.7194C5.88053 39.6135 5.59896 37.4959 6.04477 35.3607C6.21489 34.6333 6.47886 33.859 6.84841 33.0437C7.2121 32.2283 7.68724 31.4716 8.27971 30.7677C8.8663 30.0696 9.54089 29.4361 10.2976 28.873C11.0602 28.3157 11.9166 27.8933 12.8669 27.6118C13.3772 27.5003 13.8817 27.4182 14.3862 27.3595C14.8907 27.3067 15.3658 27.2774 15.8175 27.2774C18.1756 27.2774 20.2639 27.7936 22.0941 28.8319C23.9125 29.8702 25.6019 31.0786 27.1447 32.4571C28.6874 33.8297 30.1774 35.2199 31.6087 36.6219C33.04 38.0297 34.5416 39.0973 36.1137 39.8247C36.2252 39.8775 36.407 39.9479 36.6593 40.0359C36.9115 40.118 37.0933 40.077 37.2107 39.9068C37.4336 39.6253 37.3456 39.373 36.9584 39.1501C36.3953 38.8158 35.3805 38.0943 33.9257 37.0032C32.4651 35.9062 30.9458 34.4926 29.3737 32.7504C27.8016 31.0082 26.3879 28.9492 25.1209 26.5618C23.8597 24.1743 23.1441 21.5229 22.974 18.6017C22.9212 17.0824 23.0737 15.5689 23.4374 14.0555C23.8011 12.5362 24.3525 11.1049 25.0798 9.75577C25.8072 8.41247 26.7106 7.16302 27.7782 6.00742C28.8399 4.85769 30.019 3.91914 31.3154 3.18589C33.6148 1.84259 36.0844 1.168 38.7241 1.168C42.9886 1.168 47.7635 2.76941 53.0429 5.96636C54.3334 6.81106 55.7354 7.86107 57.2547 9.12812C58.7681 10.3893 60.129 11.7795 61.3374 13.293C62.5458 14.8122 63.4843 16.3843 64.1589 18.0092C64.2821 18.3142 64.3935 18.6134 64.4815 18.9125C64.8804 20.2324 64.9391 21.5346 64.6634 22.8134Z" fill="#009A00"/>
<path d="M46.1147 105.441C45.7804 102.913 45.0237 100.596 43.8446 98.4901C43.1055 97.1644 42.2725 95.8973 41.3516 94.6831C41.422 95.3987 41.5099 96.1026 41.6155 96.8066C42.2021 100.825 43.2287 104.403 44.6893 107.547C44.965 108.134 45.2466 108.685 45.5457 109.201C45.6161 109.049 45.6806 108.89 45.7393 108.726C46.103 107.711 46.2262 106.62 46.1147 105.441Z" fill="#F86201"/>
<path d="M108.441 90.53C108.388 87.5031 108.048 84.5936 107.432 81.819C106.816 79.0386 106.253 76.7215 105.748 74.8678C105.467 73.9704 105.103 72.7796 104.652 71.2896C104.206 69.7997 103.631 68.2041 102.927 66.4912C102.223 64.7784 101.425 63.0479 100.528 61.3116C99.6302 59.5694 98.6037 57.9797 97.454 56.5484C96.2984 55.1171 95.0372 53.9263 93.6646 52.9702C92.286 52.0199 90.7844 51.4861 89.1595 51.3688C85.7338 51.1459 83.1234 51.709 81.3226 53.0582C79.5276 54.4015 78.3074 56.2141 77.6622 58.4901C77.0169 60.7602 76.8351 63.3588 77.1167 66.2801C77.3924 69.1955 77.844 72.1167 78.46 75.038C79.0759 77.9592 79.7681 80.7103 80.5248 83.2914C81.2815 85.8724 81.8564 88.0076 82.2494 89.6911C82.308 89.9727 82.3374 90.2132 82.3374 90.4068C82.3374 90.6004 82.2201 90.7294 81.9971 90.7881C81.7742 90.8409 81.6041 90.7705 81.4927 90.5769C81.3812 90.3775 81.2932 90.1956 81.2404 90.0255C80.5131 87.5559 79.6977 84.8341 78.8002 81.8601C77.8968 78.8802 76.7882 76.0058 75.4742 73.2254C74.1543 70.4449 72.5236 67.9225 70.5878 65.6465C68.6521 63.3706 66.2764 61.7281 63.4724 60.7191C61.4487 60.0446 59.595 59.7102 57.9115 59.7102C54.433 59.7102 51.5117 60.8893 49.1536 63.2474C48.1681 64.2329 47.2765 65.3239 46.4728 66.5264C46.9011 67.0602 47.2882 67.6117 47.6343 68.1748C48.7547 69.9991 49.4176 71.9349 49.6111 73.9821C49.8106 76.0352 49.3472 78.1528 48.2209 80.3408C47.2648 82.6461 46.1326 84.2299 44.8128 85.0981C43.622 85.8841 42.3784 86.3182 41.0762 86.3945C40.9706 89.2336 41.0586 92.0023 41.3519 94.6831C41.4223 95.3987 41.5102 96.1026 41.6158 96.8066C42.2024 100.825 43.229 104.403 44.6896 107.547C44.9653 108.134 45.2469 108.685 45.546 109.201C46.8541 111.46 48.4204 113.067 50.2505 114.029C51.3709 114.592 52.5207 114.997 53.6997 115.249C54.8788 115.501 56.0578 115.63 57.2369 115.63C59.0319 115.63 60.7037 115.337 62.2464 114.745C63.7951 114.158 64.9565 113.302 65.7426 112.175C66.3057 111.337 66.599 110.228 66.6283 108.849C66.6576 107.477 66.5286 105.946 66.247 104.262C65.9655 102.579 65.5783 100.836 65.068 99.0415C64.5635 97.2406 64.0297 95.5043 63.4724 93.8149C62.9093 92.1314 62.3638 90.5886 61.8299 89.1867C61.2961 87.7847 60.8855 86.6584 60.6098 85.8137C60.5512 85.6495 60.5336 85.4794 60.5629 85.3093C60.5922 85.145 60.7447 85.0042 61.0263 84.8928C61.3665 84.7755 61.6422 84.9456 61.871 85.3973C62.657 87.1922 63.3844 89.0342 64.059 90.9113C64.7336 92.7942 65.5196 94.6303 66.4171 96.4253C67.4847 98.6191 68.6521 100.778 69.9133 102.913C71.1744 105.048 72.6233 106.984 74.2482 108.726C75.8789 110.463 77.7443 111.87 79.8502 112.932C81.9561 114 84.3553 114.534 87.0536 114.534C89.7519 114.534 92.638 113.959 95.3891 112.809C98.1403 111.659 100.528 110.017 102.546 107.881C104.904 105.412 106.493 102.661 107.309 99.6281C108.118 96.5954 108.5 93.5627 108.441 90.53Z" fill="#2A5BFE"/>
<path d="M49.6124 73.9821C49.4188 71.9348 48.7559 69.9991 47.6355 68.1748C47.2894 67.6116 46.9023 67.0602 46.4741 66.5264C45.5414 65.3298 44.4268 64.2094 43.1305 63.1594C41.2475 61.6459 39.1709 60.3554 36.8949 59.2878C34.6248 58.2202 32.2667 57.3814 29.8206 56.7596C27.3803 56.1437 25.0046 55.8328 22.7052 55.8328C19.954 55.8328 17.4962 56.3138 15.3375 57.2641C13.173 58.2202 11.6185 59.7923 10.6623 61.9803C10.2693 62.9364 9.83524 64.3267 9.3601 66.151C8.87909 67.9753 8.43327 70.0812 8.01092 72.4686C7.58857 74.8561 7.19556 77.4371 6.83187 80.2176C6.46231 82.9981 6.19834 85.7903 6.02823 88.5942C5.86398 91.404 5.80532 94.1551 5.86398 96.8476C5.91677 99.5459 6.12795 102.016 6.49164 104.262C6.8612 106.509 7.40673 108.456 8.13411 110.116C8.86736 111.771 9.81764 112.938 10.9967 113.607C12.1758 114.34 13.261 114.856 14.2406 115.167C15.2261 115.472 16.106 115.63 16.892 115.63C18.2998 115.63 19.4202 115.196 20.2649 114.322C21.1038 113.454 21.749 112.304 22.2007 110.873C22.6465 109.442 22.9163 107.829 22.9985 106.028C23.0865 104.233 23.0689 102.409 22.9574 100.555C22.846 98.7012 22.6348 96.8887 22.3297 95.123C22.0189 93.3515 21.6962 91.797 21.356 90.4478C21.2445 89.9434 21.1917 89.5386 21.1917 89.2277C21.1917 88.9168 21.3853 88.7115 21.7783 88.5942C22.1186 88.5414 22.3415 88.6118 22.4529 88.8054C22.5644 89.0048 22.6758 89.216 22.7873 89.4389C23.239 90.8409 23.8432 92.6828 24.5999 94.9529C25.3566 97.2289 26.2306 99.5284 27.2102 101.863C28.1957 104.192 29.275 106.309 30.4541 108.222C31.6332 110.128 32.8943 111.477 34.2435 112.263C35.7041 113.102 37.1648 113.525 38.6254 113.525C39.6871 113.525 40.702 113.331 41.6522 112.938C42.6084 112.545 43.4355 111.994 44.1394 111.295C44.7319 110.703 45.1953 110.011 45.5472 109.201C45.2481 108.685 44.9665 108.134 44.6908 107.547C43.2302 104.403 42.2036 100.825 41.617 96.8065C41.5115 96.1026 41.4235 95.3987 41.3531 94.6831C40.8075 93.9674 40.2385 93.2694 39.6343 92.5948C38.0036 90.7705 36.2497 89.0752 34.3726 87.5031C32.4896 85.931 30.6242 84.4118 28.7706 82.9511C28.6591 82.8397 28.5007 82.6754 28.3072 82.4467C28.1077 82.2237 28.1488 81.9715 28.4303 81.6899C28.6591 81.4084 28.8644 81.3087 29.0639 81.3966C29.2633 81.4788 29.4158 81.5492 29.5273 81.6078C30.2547 82.1123 31.0583 82.6461 31.9265 83.2034C32.8005 83.7665 33.7097 84.2886 34.6659 84.7637C35.6162 85.2388 36.6016 85.6377 37.6106 85.9428C38.6254 86.2537 39.6343 86.4062 40.6433 86.4062C40.7899 86.4062 40.9307 86.4003 41.0774 86.3944C42.3796 86.3182 43.6232 85.8841 44.814 85.0981C46.1338 84.2299 47.266 82.6461 48.2221 80.3408C49.3484 78.1528 49.8118 76.0352 49.6124 73.9821ZM34.4136 74.3633C34.0734 74.4748 33.7918 74.422 33.5689 74.1932C33.346 73.9703 33.2052 73.8002 33.1466 73.6888C32.4192 72.1167 31.3223 70.7968 29.8616 69.7292C28.401 68.6088 26.9873 67.9049 25.6088 67.6234C24.2362 67.3477 23.1568 67.2303 22.3708 67.289C22.2007 67.289 22.0306 67.2186 21.8663 67.0778C21.6962 66.937 21.6082 66.7552 21.6082 66.5323C21.6082 66.3094 21.6962 66.1217 21.8663 65.9809C22.0306 65.846 22.2007 65.7697 22.3708 65.7697C23.3211 65.7169 24.5705 65.846 26.1192 66.151C27.6619 66.4619 29.2457 67.2597 30.8765 68.5502C32.5013 69.7879 33.7918 71.3306 34.748 73.1843C34.8594 73.3544 34.9005 73.5656 34.877 73.8178C34.8477 74.0701 34.6952 74.2519 34.4136 74.3633Z" fill="#FA6200"/>
</svg>
