<svg width="238" height="36" viewBox="0 0 238 36" fill="none" xmlns="http://www.w3.org/2000/svg">
<path d="M226.971 15.917C226.971 16.6934 227.174 17.3959 227.581 18.0244C228.025 18.616 228.579 19.1706 229.245 19.6882C229.91 20.1689 230.631 20.6495 231.408 21.1302C232.332 21.6478 233.238 22.2024 234.125 22.7939C235.012 23.3485 235.752 24.0325 236.343 24.846C236.935 25.6594 237.231 26.7131 237.231 28.0071C237.231 29.1903 236.917 30.3549 236.288 31.5011C235.696 32.6103 234.791 33.5161 233.57 34.2186C232.35 34.9211 230.816 35.2723 228.967 35.2723C228.043 35.2723 227.119 35.1614 226.194 34.9396C225.27 34.7547 224.272 34.3665 223.2 33.7749C223.126 33.701 223.052 33.6086 222.978 33.4976C222.904 33.3867 222.867 33.2573 222.867 33.1094L222.756 27.6189C222.756 27.508 222.848 27.4525 223.033 27.4525C223.255 27.4156 223.384 27.4341 223.421 27.508C223.828 28.6911 224.401 29.8003 225.141 30.8356C225.88 31.8339 226.712 32.6473 227.636 33.2758C228.598 33.8674 229.559 34.1632 230.52 34.1632C231.26 34.1632 231.87 33.9413 232.35 33.4976C232.831 33.017 233.071 32.296 233.071 31.3347C233.071 30.2995 232.831 29.4491 232.35 28.7836C231.907 28.0811 231.334 27.4895 230.631 27.0089C229.929 26.4913 229.208 26.0291 228.468 25.6224C227.618 25.1417 226.767 24.6426 225.917 24.125C225.067 23.6074 224.364 22.9603 223.81 22.1839C223.255 21.3705 222.978 20.3168 222.978 19.0227C222.978 17.4698 223.366 16.2312 224.142 15.3069C224.919 14.3826 225.917 13.7171 227.137 13.3104C228.394 12.9037 229.688 12.7003 231.019 12.7003C231.833 12.7003 232.572 12.7558 233.238 12.8667C233.94 12.9776 234.735 13.1995 235.622 13.5322C235.955 13.6431 236.122 13.8465 236.122 14.1423C236.122 14.8817 236.103 15.6582 236.066 16.4716C236.029 17.248 236.011 18.1169 236.011 19.0782C236.011 19.1891 235.9 19.2445 235.678 19.2445C235.456 19.2445 235.345 19.1891 235.345 19.0782C235.345 18.3757 235.049 17.6177 234.458 16.8043C233.903 15.9909 233.164 15.2884 232.239 14.6969C231.315 14.0683 230.317 13.754 229.245 13.754C228.727 13.754 228.209 13.8835 227.692 14.1423C227.211 14.4011 226.971 14.9926 226.971 15.917Z" fill="#404040"/>
<path d="M208.342 19.6328L207.899 18.9118C209.341 17.248 210.561 15.9724 211.559 15.0851C212.557 14.1977 213.408 13.5877 214.11 13.2549C214.813 12.8852 215.441 12.7003 215.996 12.7003C216.772 12.7003 217.567 12.9961 218.38 13.5877C219.231 14.1423 219.656 14.8817 219.656 15.8061C219.656 16.5825 219.416 17.2295 218.935 17.7471C218.491 18.2278 217.863 18.4681 217.049 18.4681C216.273 18.4681 215.681 18.2648 215.275 17.8581C214.905 17.4513 214.554 17.0631 214.221 16.6934C213.925 16.2867 213.482 16.0833 212.89 16.0833C212.631 16.0833 212.335 16.1758 212.003 16.3606C211.707 16.5085 211.263 16.8413 210.672 17.3589C210.117 17.8396 209.341 18.5975 208.342 19.6328ZM201.576 34.6623C201.465 34.6623 201.41 34.5514 201.41 34.3295C201.41 34.1077 201.465 33.9968 201.576 33.9968C202.722 33.9968 203.499 33.738 203.906 33.2203C204.312 32.6657 204.516 31.649 204.516 30.1701V19.7437C204.516 18.5975 204.386 17.7656 204.127 17.248C203.869 16.6934 203.425 16.4161 202.796 16.4161C202.464 16.4161 202.075 16.4901 201.632 16.6379C201.188 16.7489 200.689 16.9337 200.134 17.1925C199.986 17.2665 199.876 17.1925 199.802 16.9707C199.728 16.7489 199.728 16.6195 199.802 16.5825L207.51 12.8112C207.732 12.7373 207.862 12.7003 207.899 12.7003C208.305 12.7003 208.712 13.144 209.119 14.0313C209.525 14.9187 209.729 16.1943 209.729 17.8581V30.1701C209.729 31.1314 209.877 31.9078 210.172 32.4994C210.468 33.054 210.967 33.4422 211.67 33.664C212.409 33.8859 213.408 33.9968 214.665 33.9968C214.813 33.9968 214.887 34.1077 214.887 34.3295C214.887 34.5514 214.813 34.6623 214.665 34.6623C213.666 34.6623 212.52 34.6438 211.226 34.6068C209.969 34.5699 208.601 34.5514 207.122 34.5514C206.087 34.5514 205.089 34.5699 204.127 34.6068C203.166 34.6438 202.316 34.6623 201.576 34.6623Z" fill="#404040"/>
<path d="M185.422 35.3833C183.093 35.3833 181.078 34.8471 179.377 33.7749C177.676 32.7027 176.364 31.2793 175.439 29.5045C174.515 27.6929 174.053 25.7518 174.053 23.6813C174.053 21.7587 174.422 20.0949 175.162 18.6899C175.901 17.285 176.881 16.1388 178.101 15.2515C179.321 14.3271 180.652 13.6431 182.094 13.1994C183.536 12.7558 184.96 12.5339 186.365 12.5339C188.731 12.5339 190.746 13.0885 192.41 14.1977C194.111 15.3069 195.405 16.7304 196.292 18.4681C197.179 20.2058 197.623 22.0545 197.623 24.0141C197.623 26.2694 197.05 28.2659 195.904 30.0037C194.795 31.7044 193.316 33.0355 191.467 33.9968C189.618 34.9211 187.603 35.3833 185.422 35.3833ZM187.086 34.2186C188.565 34.2186 189.674 33.4976 190.413 32.0557C191.153 30.6137 191.522 28.5802 191.522 25.9551C191.522 23.2561 191.171 21.0008 190.469 19.1891C189.803 17.3774 188.934 16.0094 187.862 15.0851C186.79 14.1607 185.662 13.6986 184.479 13.6986C183.037 13.6986 181.928 14.3456 181.152 15.6397C180.412 16.9337 180.042 18.9303 180.042 21.6293C180.042 24.1435 180.357 26.3618 180.985 28.2844C181.614 30.1701 182.464 31.6305 183.536 32.6657C184.609 33.701 185.792 34.2186 187.086 34.2186Z" fill="#404040"/>
<path d="M163.853 35.3277C162.965 35.3277 162.06 35.1798 161.135 34.8841C160.248 34.5883 159.49 34.0706 158.861 33.3312C158.27 32.5917 157.974 31.5565 157.974 30.2255V17.9134C157.974 17.137 157.882 16.527 157.697 16.0833C157.512 15.6396 157.216 15.3253 156.809 15.1405C156.403 14.9556 155.848 14.8632 155.146 14.8632C154.998 14.8632 154.924 14.6968 154.924 14.364C154.924 14.0313 154.998 13.8649 155.146 13.8649C157.031 13.7909 158.566 13.3842 159.749 12.6448C160.932 11.8684 161.819 10.7407 162.411 9.26175C162.485 9.11386 162.633 9.03992 162.855 9.03992C163.113 9.03992 163.243 9.11386 163.243 9.26175V28.3953C163.243 29.8742 163.612 30.9279 164.352 31.5565C165.128 32.185 166.071 32.4993 167.18 32.4993C168.031 32.4993 168.826 32.3329 169.565 32.0002C170.342 31.6304 170.989 31.2422 171.506 30.8355C171.617 30.7246 171.747 30.7616 171.894 30.9464C172.079 31.0943 172.098 31.2237 171.95 31.3346C170.582 32.7026 169.251 33.7194 167.957 34.3849C166.7 35.0135 165.332 35.3277 163.853 35.3277ZM170.231 16.0833C168.715 15.7505 167.236 15.5287 165.794 15.4178C164.389 15.2699 162.892 15.1959 161.302 15.1959V13.754C162.818 13.754 164.296 13.6985 165.738 13.5876C167.217 13.4767 168.789 13.3473 170.452 13.1994C170.526 13.1994 170.6 13.3473 170.674 13.6431C170.785 13.9019 170.841 14.1977 170.841 14.5304C170.841 14.9001 170.767 15.2699 170.619 15.6396C170.508 15.9724 170.379 16.1202 170.231 16.0833Z" fill="#404040"/>
<path d="M141.538 34.6622C141.427 34.6622 141.371 34.5513 141.371 34.3295C141.371 34.1076 141.427 33.9967 141.538 33.9967C142.684 33.9967 143.46 33.7379 143.867 33.2203C144.274 32.6657 144.477 31.6489 144.477 30.17V22.1839C144.477 20.1873 144.107 18.7084 143.368 17.7471C142.666 16.7858 141.538 16.3051 139.985 16.3051C138.876 16.3051 137.73 16.5824 136.546 17.137C135.4 17.6916 134.476 18.4496 133.774 19.4109L133.496 18.7454C134.79 16.8967 136.251 15.4178 137.878 14.3086C139.504 13.1624 141.279 12.5894 143.202 12.5894C145.272 12.5894 146.862 13.2364 147.971 14.5304C149.117 15.8245 149.69 17.4883 149.69 19.5218V30.17C149.69 31.6489 149.894 32.6657 150.3 33.2203C150.744 33.7379 151.539 33.9967 152.685 33.9967C152.796 33.9967 152.852 34.1076 152.852 34.3295C152.852 34.5513 152.796 34.6622 152.685 34.6622C151.946 34.6622 151.095 34.6438 150.134 34.6068C149.173 34.5698 148.156 34.5513 147.084 34.5513C146.049 34.5513 145.05 34.5698 144.089 34.6068C143.128 34.6438 142.277 34.6622 141.538 34.6622ZM126.619 34.6622C126.508 34.6622 126.453 34.5513 126.453 34.3295C126.453 34.1076 126.508 33.9967 126.619 33.9967C127.765 33.9967 128.542 33.7379 128.949 33.2203C129.355 32.6657 129.559 31.6489 129.559 30.17V19.7436C129.559 18.5975 129.429 17.7656 129.17 17.248C128.912 16.6934 128.468 16.4161 127.839 16.4161C127.507 16.4161 127.118 16.49 126.675 16.6379C126.231 16.7488 125.732 16.9337 125.177 17.1925C125.029 17.2664 124.918 17.1925 124.845 16.9707C124.771 16.7488 124.771 16.6194 124.845 16.5824L132.553 12.8112C132.775 12.7372 132.905 12.7003 132.942 12.7003C133.348 12.7003 133.755 13.144 134.162 14.0313C134.568 14.9187 134.772 16.1942 134.772 17.858V30.17C134.772 31.6489 134.975 32.6657 135.382 33.2203C135.826 33.7379 136.62 33.9967 137.767 33.9967C137.878 33.9967 137.933 34.1076 137.933 34.3295C137.933 34.5513 137.878 34.6622 137.767 34.6622C137.027 34.6622 136.177 34.6438 135.215 34.6068C134.254 34.5698 133.237 34.5513 132.165 34.5513C131.13 34.5513 130.132 34.5698 129.17 34.6068C128.209 34.6438 127.359 34.6622 126.619 34.6622Z" fill="#404040"/>
<path d="M114.309 35.3278C111.906 35.3278 109.854 34.8286 108.153 33.8304C106.489 32.8321 105.214 31.5195 104.326 29.8927C103.476 28.2289 103.051 26.4542 103.051 24.5686C103.051 22.3872 103.587 20.4091 104.659 18.6344C105.731 16.8597 107.21 15.4363 109.096 14.3641C110.981 13.2918 113.144 12.7557 115.585 12.7557C117.766 12.7557 119.504 13.2549 120.798 14.2531C122.129 15.2514 122.794 16.8782 122.794 19.1336C122.794 19.6142 122.757 20.0209 122.683 20.3537C122.61 20.6864 122.443 20.8528 122.184 20.8528H116.86C116.934 18.7454 116.731 17.0631 116.25 15.806C115.769 14.512 114.845 13.8649 113.477 13.8649C111.998 13.8649 110.815 14.6229 109.928 16.1388C109.077 17.6547 108.652 19.6697 108.652 22.1839C108.652 24.3283 108.985 26.1769 109.65 27.7298C110.316 29.2827 111.296 30.4843 112.59 31.3347C113.884 32.1851 115.474 32.6102 117.359 32.6102C118.469 32.6102 119.393 32.4808 120.132 32.222C120.909 31.9262 121.759 31.538 122.683 31.0574C122.757 30.9834 122.85 31.0204 122.961 31.1683C123.109 31.3162 123.146 31.4456 123.072 31.5565C121.704 32.9245 120.299 33.9043 118.857 34.4959C117.452 35.0505 115.936 35.3278 114.309 35.3278ZM106.711 20.9083L106.656 19.8546L118.801 19.6327V20.8528L106.711 20.9083Z" fill="#404040"/>
<path d="M60.2124 27.6188L60.767 1.27557L62.3753 1.38649L61.7653 27.6188C61.7283 29.5784 62.1165 31.1313 62.9299 32.2774C63.7803 33.4236 64.9635 33.9967 66.4793 33.9967C66.5903 33.9967 66.6457 34.1076 66.6457 34.3294C66.6457 34.5513 66.5903 34.6622 66.4793 34.6622C65.6659 34.6622 64.834 34.6437 63.9837 34.6067C63.1333 34.5698 62.172 34.5513 61.0998 34.5513C59.9166 34.5513 58.8444 34.5698 57.8831 34.6067C56.9218 34.6437 56.0345 34.6622 55.2211 34.6622C55.1101 34.6622 55.0547 34.5513 55.0547 34.3294C55.0547 34.1076 55.1101 33.9967 55.2211 33.9967C56.737 33.9967 57.9386 33.4236 58.8259 32.2774C59.7133 31.1313 60.1754 29.5784 60.2124 27.6188ZM99.9214 33.9967C99.9954 33.9967 100.032 34.1076 100.032 34.3294C100.032 34.5513 99.9954 34.6622 99.9214 34.6622C98.9601 34.6622 97.8694 34.6437 96.6493 34.6067C95.4292 34.5698 94.1536 34.5513 92.8226 34.5513C91.4546 34.5513 90.179 34.5698 88.9959 34.6067C87.8128 34.6437 86.7406 34.6622 85.7793 34.6622C85.6683 34.6622 85.6129 34.5513 85.6129 34.3294C85.6129 34.1076 85.6683 33.9967 85.7793 33.9967C87.517 33.9967 88.6262 33.7564 89.1068 33.2757C89.6244 32.7951 89.8278 31.7598 89.7169 30.17L88.4413 5.54595L91.2698 1.10919L77.1276 34.274C77.0906 34.4219 76.9427 34.4958 76.6839 34.4958C76.4621 34.4958 76.3142 34.4219 76.2402 34.274L60.6561 4.60314C59.2511 1.97805 57.5689 0.665512 55.6093 0.665512C55.4984 0.665512 55.4429 0.554593 55.4429 0.332756C55.4429 0.110919 55.4984 0 55.6093 0C56.3857 0 57.1991 0.0184865 58.0495 0.055459C58.8999 0.0924316 59.6209 0.110918 60.2124 0.110918C61.1737 0.110918 62.0056 0.0924316 62.7081 0.055459C63.4476 0.0184865 64.0206 0 64.4273 0C64.945 0 65.3332 0.184865 65.592 0.554595C65.8878 0.924325 66.3499 1.70076 66.9785 2.88389L79.4014 26.1769L76.6284 31.1682L89.606 1.38649C89.8278 0.868864 90.0496 0.517621 90.2715 0.332756C90.5303 0.110919 90.863 0 91.2698 0C91.6395 0 92.0277 0.0184865 92.4344 0.055459C92.8411 0.0924316 93.3218 0.110918 93.8764 0.110918C95.0595 0.110918 96.0578 0.0924316 96.8712 0.055459C97.7215 0.0184865 98.5534 0 99.3668 0C99.4778 0 99.5332 0.110919 99.5332 0.332756C99.5332 0.554593 99.4778 0.665512 99.3668 0.665512C97.6661 0.665512 96.409 1.01676 95.5956 1.71924C94.8192 2.42173 94.4679 3.51243 94.5419 4.99135L95.8729 30.17C95.9468 31.2422 96.0762 32.0556 96.2611 32.6102C96.4829 33.1648 96.8712 33.5345 97.4258 33.7194C97.9804 33.9042 98.8122 33.9967 99.9214 33.9967Z" fill="#404040"/>
<path d="M37.5703 26.1215C37.4593 26.1215 37.3854 25.8811 37.3484 25.4005C37.3115 24.9198 37.293 24.4207 37.293 23.9031C37.3299 23.3855 37.3854 23.1267 37.4593 23.1267L51.9343 20.5201C52.0452 20.4831 52.1191 20.7234 52.1561 21.241C52.1931 21.7217 52.1931 22.2208 52.1561 22.7384C52.1191 23.2191 52.0452 23.4779 51.9343 23.5149L37.5703 26.1215Z" fill="#404040"/>
<path d="M22.2947 34.6622C22.1838 34.6622 22.1283 34.5513 22.1283 34.3294C22.1283 34.1076 22.1838 33.9967 22.2947 33.9967C22.9972 33.9967 23.5333 33.8673 23.903 33.6085C24.3098 33.3127 24.2173 32.7211 23.6258 31.8338L6.37784 5.10227C5.3426 3.47546 4.36282 2.3293 3.43849 1.66378C2.55114 0.99827 1.58984 0.665512 0.554595 0.665512C0.443676 0.665512 0.388217 0.554593 0.388217 0.332756C0.388217 0.110919 0.443676 0 0.554595 0C1.29406 0 2.07049 0.036973 2.88389 0.110918C3.73427 0.147891 4.52919 0.166376 5.26865 0.166376C6.85849 0.166376 8.31893 0.147891 9.64996 0.110918C11.018 0.036973 12.2196 0 13.2548 0C13.3288 0 13.3657 0.110919 13.3657 0.332756C13.3657 0.554593 13.3288 0.665512 13.2548 0.665512C12.5523 0.665512 11.9977 0.794918 11.591 1.05373C11.1843 1.31254 11.2768 1.92259 11.8683 2.88389L29.449 30.0591C30.3733 31.4271 31.3161 32.4253 32.2774 33.0539C33.2387 33.6824 34.3479 33.9967 35.605 33.9967C35.7159 33.9967 35.7714 34.1076 35.7714 34.3294C35.7714 34.5513 35.7159 34.6622 35.605 34.6622C34.7916 34.6622 33.8858 34.6437 32.8875 34.6067C31.9262 34.5698 30.8909 34.5513 29.7818 34.5513C28.1919 34.5513 26.8054 34.5698 25.6223 34.6067C24.4392 34.6437 23.33 34.6622 22.2947 34.6622ZM0.166379 34.6622C0.0554595 34.6622 0 34.5513 0 34.3294C0 34.1076 0.0554595 33.9967 0.166379 33.9967C1.2386 33.9967 2.58811 33.4236 4.21492 32.2774C5.87871 31.1313 7.6719 29.2272 9.5945 26.5651L16.416 17.3588L17.4143 18.1353L11.2583 26.8979C9.70542 29.0793 8.98444 30.817 9.09536 32.1111C9.20628 33.3681 10.1676 33.9967 11.9793 33.9967C12.0532 33.9967 12.0902 34.1076 12.0902 34.3294C12.0902 34.5513 12.0532 34.6622 11.9793 34.6622C10.907 34.6622 9.89028 34.6437 8.92898 34.6067C7.96768 34.5698 6.69211 34.5513 5.10228 34.5513C4.06703 34.5513 3.21665 34.5698 2.55114 34.6067C1.9226 34.6437 1.12768 34.6622 0.166379 34.6622ZM18.468 17.3588L17.4697 16.5824L23.6258 7.81979C25.1786 5.60141 25.8996 3.86368 25.7887 2.6066C25.6778 1.31254 24.7165 0.665512 22.9048 0.665512C22.8308 0.665512 22.7939 0.554593 22.7939 0.332756C22.7939 0.110919 22.8308 0 22.9048 0C23.977 0 24.9938 0.036973 25.9551 0.110918C26.9163 0.147891 28.1919 0.166376 29.7818 0.166376C30.854 0.166376 31.7044 0.147891 32.3329 0.110918C32.9984 0.036973 33.7933 0 34.7177 0C34.8286 0 34.884 0.110919 34.884 0.332756C34.884 0.554593 34.8286 0.665512 34.7177 0.665512C33.6454 0.665512 32.2774 1.25708 30.6136 2.44022C28.9868 3.58638 27.1936 5.49049 25.2341 8.15255L18.468 17.3588Z" fill="#404040"/>
</svg>
